<mxfile host="app.diagrams.net" agent="Mozilla/5.0 (Windows NT 10.0; Win64; x64) AppleWebKit/537.36 (KHTML, like Gecko) Chrome/131.0.0.0 Safari/537.36" version="24.9.1">
  <diagram name="Page-1" id="OZMEXE9qiZKhC_GyDNDu">
    <mxGraphModel dx="2017" dy="1689" grid="1" gridSize="10" guides="1" tooltips="1" connect="1" arrows="1" fold="1" page="1" pageScale="1" pageWidth="850" pageHeight="1100" math="0" shadow="0">
      <root>
        <mxCell id="0" />
        <mxCell id="1" parent="0" />
        <mxCell id="_PjeG-Arwg3pyeLobfxm-9" value="" style="rounded=0;whiteSpace=wrap;html=1;dashed=1;" vertex="1" parent="1">
          <mxGeometry x="-10" y="190.63" width="900" height="418.75" as="geometry" />
        </mxCell>
        <mxCell id="uKL7S93gOn8IDhQJY8BF-62" value="" style="rounded=0;whiteSpace=wrap;html=1;dashed=1;" parent="1" vertex="1">
          <mxGeometry x="410" y="5" width="280" height="145" as="geometry" />
        </mxCell>
        <mxCell id="uKL7S93gOn8IDhQJY8BF-1" value="" style="endArrow=none;html=1;rounded=0;" parent="1" edge="1">
          <mxGeometry width="50" height="50" relative="1" as="geometry">
            <mxPoint x="-40" y="241.25" as="sourcePoint" />
            <mxPoint x="40" y="241.25" as="targetPoint" />
          </mxGeometry>
        </mxCell>
        <mxCell id="uKL7S93gOn8IDhQJY8BF-2" value="" style="endArrow=none;html=1;rounded=0;" parent="1" edge="1">
          <mxGeometry width="50" height="50" relative="1" as="geometry">
            <mxPoint x="-40" y="281.25" as="sourcePoint" />
            <mxPoint x="40" y="281.25" as="targetPoint" />
          </mxGeometry>
        </mxCell>
        <mxCell id="uKL7S93gOn8IDhQJY8BF-3" value="" style="endArrow=none;html=1;rounded=0;" parent="1" edge="1">
          <mxGeometry width="50" height="50" relative="1" as="geometry">
            <mxPoint x="-40" y="321.25" as="sourcePoint" />
            <mxPoint x="40" y="322.25" as="targetPoint" />
          </mxGeometry>
        </mxCell>
        <mxCell id="uKL7S93gOn8IDhQJY8BF-5" value="" style="endArrow=none;html=1;rounded=0;" parent="1" edge="1">
          <mxGeometry width="50" height="50" relative="1" as="geometry">
            <mxPoint x="-40" y="361.25" as="sourcePoint" />
            <mxPoint x="40" y="361.25" as="targetPoint" />
          </mxGeometry>
        </mxCell>
        <mxCell id="uKL7S93gOn8IDhQJY8BF-6" value="" style="endArrow=none;html=1;rounded=0;" parent="1" edge="1">
          <mxGeometry width="50" height="50" relative="1" as="geometry">
            <mxPoint x="-40" y="401.25" as="sourcePoint" />
            <mxPoint x="40" y="401.25" as="targetPoint" />
          </mxGeometry>
        </mxCell>
        <mxCell id="uKL7S93gOn8IDhQJY8BF-7" value="" style="endArrow=none;html=1;rounded=0;" parent="1" edge="1">
          <mxGeometry width="50" height="50" relative="1" as="geometry">
            <mxPoint x="-40" y="441.25" as="sourcePoint" />
            <mxPoint x="40" y="441.25" as="targetPoint" />
          </mxGeometry>
        </mxCell>
        <mxCell id="uKL7S93gOn8IDhQJY8BF-8" value="" style="endArrow=none;html=1;rounded=0;" parent="1" edge="1">
          <mxGeometry width="50" height="50" relative="1" as="geometry">
            <mxPoint x="-40" y="481.25" as="sourcePoint" />
            <mxPoint x="40" y="481.25" as="targetPoint" />
          </mxGeometry>
        </mxCell>
        <mxCell id="uKL7S93gOn8IDhQJY8BF-9" value="" style="endArrow=none;html=1;rounded=0;" parent="1" edge="1">
          <mxGeometry width="50" height="50" relative="1" as="geometry">
            <mxPoint x="-40" y="521.25" as="sourcePoint" />
            <mxPoint x="40" y="521.25" as="targetPoint" />
          </mxGeometry>
        </mxCell>
        <mxCell id="uKL7S93gOn8IDhQJY8BF-10" value="" style="endArrow=none;html=1;rounded=0;" parent="1" edge="1">
          <mxGeometry width="50" height="50" relative="1" as="geometry">
            <mxPoint x="-40" y="561.25" as="sourcePoint" />
            <mxPoint x="40" y="561.25" as="targetPoint" />
          </mxGeometry>
        </mxCell>
        <mxCell id="uKL7S93gOn8IDhQJY8BF-13" value="S1" style="text;html=1;align=center;verticalAlign=middle;whiteSpace=wrap;rounded=0;" parent="1" vertex="1">
          <mxGeometry x="-90" y="221.25" width="60" height="30" as="geometry" />
        </mxCell>
        <mxCell id="uKL7S93gOn8IDhQJY8BF-14" value="S2" style="text;html=1;align=center;verticalAlign=middle;whiteSpace=wrap;rounded=0;" parent="1" vertex="1">
          <mxGeometry x="-90" y="251.25" width="60" height="30" as="geometry" />
        </mxCell>
        <mxCell id="uKL7S93gOn8IDhQJY8BF-15" value="S3" style="text;html=1;align=center;verticalAlign=middle;whiteSpace=wrap;rounded=0;" parent="1" vertex="1">
          <mxGeometry x="-90" y="291.25" width="60" height="30" as="geometry" />
        </mxCell>
        <mxCell id="uKL7S93gOn8IDhQJY8BF-16" value="S4" style="text;html=1;align=center;verticalAlign=middle;whiteSpace=wrap;rounded=0;" parent="1" vertex="1">
          <mxGeometry x="-90" y="331.25" width="60" height="30" as="geometry" />
        </mxCell>
        <mxCell id="uKL7S93gOn8IDhQJY8BF-17" value="S5" style="text;html=1;align=center;verticalAlign=middle;whiteSpace=wrap;rounded=0;" parent="1" vertex="1">
          <mxGeometry x="-90" y="371.25" width="60" height="30" as="geometry" />
        </mxCell>
        <mxCell id="uKL7S93gOn8IDhQJY8BF-18" value="S6" style="text;html=1;align=center;verticalAlign=middle;whiteSpace=wrap;rounded=0;" parent="1" vertex="1">
          <mxGeometry x="-90" y="411.25" width="60" height="30" as="geometry" />
        </mxCell>
        <mxCell id="uKL7S93gOn8IDhQJY8BF-19" value="S7" style="text;html=1;align=center;verticalAlign=middle;whiteSpace=wrap;rounded=0;" parent="1" vertex="1">
          <mxGeometry x="-90" y="451.25" width="60" height="30" as="geometry" />
        </mxCell>
        <mxCell id="uKL7S93gOn8IDhQJY8BF-20" value="S8" style="text;html=1;align=center;verticalAlign=middle;whiteSpace=wrap;rounded=0;" parent="1" vertex="1">
          <mxGeometry x="-90" y="491.25" width="60" height="30" as="geometry" />
        </mxCell>
        <mxCell id="uKL7S93gOn8IDhQJY8BF-21" value="S9" style="text;html=1;align=center;verticalAlign=middle;whiteSpace=wrap;rounded=0;" parent="1" vertex="1">
          <mxGeometry x="-90" y="531.25" width="60" height="30" as="geometry" />
        </mxCell>
        <mxCell id="uKL7S93gOn8IDhQJY8BF-28" value="Node" style="rounded=0;whiteSpace=wrap;html=1;" parent="1" vertex="1">
          <mxGeometry x="160" y="80" width="80" height="80" as="geometry" />
        </mxCell>
        <mxCell id="uKL7S93gOn8IDhQJY8BF-29" value="A" style="text;html=1;align=center;verticalAlign=middle;whiteSpace=wrap;rounded=0;" parent="1" vertex="1">
          <mxGeometry x="160" y="80" width="20" height="30" as="geometry" />
        </mxCell>
        <mxCell id="uKL7S93gOn8IDhQJY8BF-31" value="B" style="text;html=1;align=center;verticalAlign=middle;whiteSpace=wrap;rounded=0;" parent="1" vertex="1">
          <mxGeometry x="160" y="130" width="20" height="30" as="geometry" />
        </mxCell>
        <mxCell id="uKL7S93gOn8IDhQJY8BF-33" value="max" style="text;html=1;align=center;verticalAlign=middle;whiteSpace=wrap;rounded=0;" parent="1" vertex="1">
          <mxGeometry x="210" y="80" width="30" height="30" as="geometry" />
        </mxCell>
        <mxCell id="uKL7S93gOn8IDhQJY8BF-34" value="min" style="text;html=1;align=center;verticalAlign=middle;whiteSpace=wrap;rounded=0;" parent="1" vertex="1">
          <mxGeometry x="210" y="130" width="30" height="30" as="geometry" />
        </mxCell>
        <mxCell id="uKL7S93gOn8IDhQJY8BF-35" value="" style="endArrow=classic;html=1;rounded=0;entryX=0;entryY=0.5;entryDx=0;entryDy=0;" parent="1" target="uKL7S93gOn8IDhQJY8BF-29" edge="1">
          <mxGeometry width="50" height="50" relative="1" as="geometry">
            <mxPoint x="120" y="95" as="sourcePoint" />
            <mxPoint x="120" y="80" as="targetPoint" />
          </mxGeometry>
        </mxCell>
        <mxCell id="uKL7S93gOn8IDhQJY8BF-36" value="" style="endArrow=classic;html=1;rounded=0;entryX=0;entryY=0.5;entryDx=0;entryDy=0;" parent="1" edge="1">
          <mxGeometry width="50" height="50" relative="1" as="geometry">
            <mxPoint x="120" y="144.8" as="sourcePoint" />
            <mxPoint x="160" y="144.8" as="targetPoint" />
          </mxGeometry>
        </mxCell>
        <mxCell id="uKL7S93gOn8IDhQJY8BF-37" value="" style="endArrow=classic;html=1;rounded=0;entryX=0;entryY=0.5;entryDx=0;entryDy=0;" parent="1" edge="1">
          <mxGeometry width="50" height="50" relative="1" as="geometry">
            <mxPoint x="240" y="94.80000000000001" as="sourcePoint" />
            <mxPoint x="280" y="94.80000000000001" as="targetPoint" />
          </mxGeometry>
        </mxCell>
        <mxCell id="uKL7S93gOn8IDhQJY8BF-38" value="" style="endArrow=classic;html=1;rounded=0;entryX=0;entryY=0.5;entryDx=0;entryDy=0;" parent="1" edge="1">
          <mxGeometry width="50" height="50" relative="1" as="geometry">
            <mxPoint x="240" y="144.8" as="sourcePoint" />
            <mxPoint x="280" y="144.8" as="targetPoint" />
          </mxGeometry>
        </mxCell>
        <mxCell id="uKL7S93gOn8IDhQJY8BF-42" value="" style="endArrow=none;html=1;rounded=0;" parent="1" edge="1">
          <mxGeometry width="50" height="50" relative="1" as="geometry">
            <mxPoint x="380" y="40" as="sourcePoint" />
            <mxPoint x="460" y="40" as="targetPoint" />
          </mxGeometry>
        </mxCell>
        <mxCell id="uKL7S93gOn8IDhQJY8BF-43" value="" style="endArrow=none;html=1;rounded=0;" parent="1" edge="1">
          <mxGeometry width="50" height="50" relative="1" as="geometry">
            <mxPoint x="380" y="80" as="sourcePoint" />
            <mxPoint x="460" y="80" as="targetPoint" />
          </mxGeometry>
        </mxCell>
        <mxCell id="uKL7S93gOn8IDhQJY8BF-44" value="" style="endArrow=none;html=1;rounded=0;entryX=0.02;entryY=0.847;entryDx=0;entryDy=0;entryPerimeter=0;" parent="1" target="uKL7S93gOn8IDhQJY8BF-50" edge="1">
          <mxGeometry width="50" height="50" relative="1" as="geometry">
            <mxPoint x="380" y="120" as="sourcePoint" />
            <mxPoint x="460" y="120" as="targetPoint" />
          </mxGeometry>
        </mxCell>
        <mxCell id="uKL7S93gOn8IDhQJY8BF-45" value="S1" style="text;html=1;align=center;verticalAlign=middle;whiteSpace=wrap;rounded=0;" parent="1" vertex="1">
          <mxGeometry x="330" y="20" width="60" height="30" as="geometry" />
        </mxCell>
        <mxCell id="uKL7S93gOn8IDhQJY8BF-46" value="S2" style="text;html=1;align=center;verticalAlign=middle;whiteSpace=wrap;rounded=0;" parent="1" vertex="1">
          <mxGeometry x="330" y="50" width="60" height="30" as="geometry" />
        </mxCell>
        <mxCell id="uKL7S93gOn8IDhQJY8BF-47" value="S3" style="text;html=1;align=center;verticalAlign=middle;whiteSpace=wrap;rounded=0;" parent="1" vertex="1">
          <mxGeometry x="330" y="90" width="60" height="30" as="geometry" />
        </mxCell>
        <mxCell id="uKL7S93gOn8IDhQJY8BF-48" value="N1" style="rounded=0;whiteSpace=wrap;html=1;" parent="1" vertex="1">
          <mxGeometry x="460" y="30" width="40" height="60" as="geometry" />
        </mxCell>
        <mxCell id="uKL7S93gOn8IDhQJY8BF-49" value="" style="endArrow=none;html=1;rounded=0;exitX=0.99;exitY=0.84;exitDx=0;exitDy=0;exitPerimeter=0;" parent="1" source="uKL7S93gOn8IDhQJY8BF-48" edge="1">
          <mxGeometry width="50" height="50" relative="1" as="geometry">
            <mxPoint x="560" y="120" as="sourcePoint" />
            <mxPoint x="540" y="80" as="targetPoint" />
          </mxGeometry>
        </mxCell>
        <mxCell id="uKL7S93gOn8IDhQJY8BF-50" value="N2" style="rounded=0;whiteSpace=wrap;html=1;" parent="1" vertex="1">
          <mxGeometry x="540" y="70" width="40" height="60" as="geometry" />
        </mxCell>
        <mxCell id="uKL7S93gOn8IDhQJY8BF-51" value="N3" style="rounded=0;whiteSpace=wrap;html=1;" parent="1" vertex="1">
          <mxGeometry x="620" y="30" width="40" height="60" as="geometry" />
        </mxCell>
        <mxCell id="uKL7S93gOn8IDhQJY8BF-52" value="" style="endArrow=none;html=1;rounded=0;entryX=-0.04;entryY=0.173;entryDx=0;entryDy=0;entryPerimeter=0;exitX=1.04;exitY=0.167;exitDx=0;exitDy=0;exitPerimeter=0;" parent="1" source="uKL7S93gOn8IDhQJY8BF-48" target="uKL7S93gOn8IDhQJY8BF-51" edge="1">
          <mxGeometry width="50" height="50" relative="1" as="geometry">
            <mxPoint x="535" y="80" as="sourcePoint" />
            <mxPoint x="585" y="30" as="targetPoint" />
          </mxGeometry>
        </mxCell>
        <mxCell id="uKL7S93gOn8IDhQJY8BF-53" value="" style="endArrow=none;html=1;rounded=0;exitX=0.992;exitY=0.167;exitDx=0;exitDy=0;exitPerimeter=0;entryX=0.017;entryY=0.822;entryDx=0;entryDy=0;entryPerimeter=0;" parent="1" source="uKL7S93gOn8IDhQJY8BF-50" target="uKL7S93gOn8IDhQJY8BF-51" edge="1">
          <mxGeometry width="50" height="50" relative="1" as="geometry">
            <mxPoint x="650" y="100" as="sourcePoint" />
            <mxPoint x="700" y="50" as="targetPoint" />
          </mxGeometry>
        </mxCell>
        <mxCell id="uKL7S93gOn8IDhQJY8BF-54" value="" style="endArrow=none;html=1;rounded=0;exitX=0.996;exitY=0.837;exitDx=0;exitDy=0;exitPerimeter=0;" parent="1" source="uKL7S93gOn8IDhQJY8BF-50" edge="1">
          <mxGeometry width="50" height="50" relative="1" as="geometry">
            <mxPoint x="650" y="150" as="sourcePoint" />
            <mxPoint x="720" y="120" as="targetPoint" />
          </mxGeometry>
        </mxCell>
        <mxCell id="uKL7S93gOn8IDhQJY8BF-55" value="" style="endArrow=none;html=1;rounded=0;" parent="1" edge="1">
          <mxGeometry width="50" height="50" relative="1" as="geometry">
            <mxPoint x="661" y="41" as="sourcePoint" />
            <mxPoint x="720" y="41" as="targetPoint" />
          </mxGeometry>
        </mxCell>
        <mxCell id="uKL7S93gOn8IDhQJY8BF-56" value="" style="endArrow=none;html=1;rounded=0;exitX=1.032;exitY=0.181;exitDx=0;exitDy=0;exitPerimeter=0;" parent="1" edge="1">
          <mxGeometry width="50" height="50" relative="1" as="geometry">
            <mxPoint x="660" y="80" as="sourcePoint" />
            <mxPoint x="719" y="80" as="targetPoint" />
          </mxGeometry>
        </mxCell>
        <mxCell id="uKL7S93gOn8IDhQJY8BF-58" value="max" style="text;html=1;align=center;verticalAlign=middle;whiteSpace=wrap;rounded=0;" parent="1" vertex="1">
          <mxGeometry x="720" y="10" width="60" height="30" as="geometry" />
        </mxCell>
        <mxCell id="uKL7S93gOn8IDhQJY8BF-60" value="med" style="text;html=1;align=center;verticalAlign=middle;whiteSpace=wrap;rounded=0;" parent="1" vertex="1">
          <mxGeometry x="720" y="50" width="60" height="30" as="geometry" />
        </mxCell>
        <mxCell id="uKL7S93gOn8IDhQJY8BF-61" value="min" style="text;html=1;align=center;verticalAlign=middle;whiteSpace=wrap;rounded=0;" parent="1" vertex="1">
          <mxGeometry x="720" y="90" width="60" height="30" as="geometry" />
        </mxCell>
        <mxCell id="uKL7S93gOn8IDhQJY8BF-63" value="Sorting_network" style="text;html=1;align=center;verticalAlign=middle;whiteSpace=wrap;rounded=0;" parent="1" vertex="1">
          <mxGeometry x="530" y="-30" width="60" height="30" as="geometry" />
        </mxCell>
        <mxCell id="uKL7S93gOn8IDhQJY8BF-64" value="Sorting_network" style="rounded=0;whiteSpace=wrap;html=1;" parent="1" vertex="1">
          <mxGeometry x="40" y="231.25" width="120" height="100" as="geometry" />
        </mxCell>
        <mxCell id="uKL7S93gOn8IDhQJY8BF-65" value="" style="endArrow=none;html=1;rounded=0;exitX=1.01;exitY=0.096;exitDx=0;exitDy=0;exitPerimeter=0;entryX=-0.021;entryY=0.173;entryDx=0;entryDy=0;entryPerimeter=0;" parent="1" source="uKL7S93gOn8IDhQJY8BF-64" edge="1" target="_PjeG-Arwg3pyeLobfxm-2">
          <mxGeometry width="50" height="50" relative="1" as="geometry">
            <mxPoint x="300" y="260" as="sourcePoint" />
            <mxPoint x="400" y="240" as="targetPoint" />
          </mxGeometry>
        </mxCell>
        <mxCell id="uKL7S93gOn8IDhQJY8BF-66" value="" style="endArrow=none;html=1;rounded=0;entryX=0;entryY=0.092;entryDx=0;entryDy=0;entryPerimeter=0;" parent="1" target="uKL7S93gOn8IDhQJY8BF-96" edge="1">
          <mxGeometry width="50" height="50" relative="1" as="geometry">
            <mxPoint x="160" y="280" as="sourcePoint" />
            <mxPoint x="321" y="279.66" as="targetPoint" />
            <Array as="points">
              <mxPoint x="320" y="280" />
              <mxPoint x="360" y="359" />
            </Array>
          </mxGeometry>
        </mxCell>
        <mxCell id="uKL7S93gOn8IDhQJY8BF-67" value="" style="endArrow=none;html=1;rounded=0;exitX=1.007;exitY=0.895;exitDx=0;exitDy=0;exitPerimeter=0;entryX=0;entryY=0.303;entryDx=0;entryDy=0;entryPerimeter=0;" parent="1" source="uKL7S93gOn8IDhQJY8BF-64" target="_PjeG-Arwg3pyeLobfxm-4" edge="1">
          <mxGeometry width="50" height="50" relative="1" as="geometry">
            <mxPoint x="240" y="320" as="sourcePoint" />
            <mxPoint x="490" y="510" as="targetPoint" />
            <Array as="points">
              <mxPoint x="320" y="320" />
              <mxPoint x="400" y="500" />
            </Array>
          </mxGeometry>
        </mxCell>
        <mxCell id="uKL7S93gOn8IDhQJY8BF-68" value="max1" style="text;html=1;align=center;verticalAlign=middle;whiteSpace=wrap;rounded=0;" parent="1" vertex="1">
          <mxGeometry x="250" y="210" width="60" height="30" as="geometry" />
        </mxCell>
        <mxCell id="uKL7S93gOn8IDhQJY8BF-70" value="med1" style="text;html=1;align=center;verticalAlign=middle;whiteSpace=wrap;rounded=0;" parent="1" vertex="1">
          <mxGeometry x="250" y="250" width="60" height="30" as="geometry" />
        </mxCell>
        <mxCell id="uKL7S93gOn8IDhQJY8BF-71" value="min1" style="text;html=1;align=center;verticalAlign=middle;whiteSpace=wrap;rounded=0;" parent="1" vertex="1">
          <mxGeometry x="250" y="290" width="60" height="30" as="geometry" />
        </mxCell>
        <mxCell id="uKL7S93gOn8IDhQJY8BF-80" value="Sorting_network" style="rounded=0;whiteSpace=wrap;html=1;" parent="1" vertex="1">
          <mxGeometry x="39" y="351.25" width="120" height="100" as="geometry" />
        </mxCell>
        <mxCell id="uKL7S93gOn8IDhQJY8BF-81" value="" style="endArrow=none;html=1;rounded=0;exitX=1.01;exitY=0.096;exitDx=0;exitDy=0;exitPerimeter=0;" parent="1" source="uKL7S93gOn8IDhQJY8BF-80" edge="1">
          <mxGeometry width="50" height="50" relative="1" as="geometry">
            <mxPoint x="299" y="380" as="sourcePoint" />
            <mxPoint x="409" y="260" as="targetPoint" />
            <Array as="points">
              <mxPoint x="320" y="360" />
              <mxPoint x="360" y="260" />
            </Array>
          </mxGeometry>
        </mxCell>
        <mxCell id="uKL7S93gOn8IDhQJY8BF-82" value="" style="endArrow=none;html=1;rounded=0;entryX=0;entryY=0.5;entryDx=0;entryDy=0;" parent="1" target="uKL7S93gOn8IDhQJY8BF-96" edge="1">
          <mxGeometry width="50" height="50" relative="1" as="geometry">
            <mxPoint x="159" y="400" as="sourcePoint" />
            <mxPoint x="320" y="399.66" as="targetPoint" />
          </mxGeometry>
        </mxCell>
        <mxCell id="uKL7S93gOn8IDhQJY8BF-83" value="" style="endArrow=none;html=1;rounded=0;entryX=-0.009;entryY=0.596;entryDx=0;entryDy=0;entryPerimeter=0;" parent="1" target="_PjeG-Arwg3pyeLobfxm-4" edge="1">
          <mxGeometry width="50" height="50" relative="1" as="geometry">
            <mxPoint x="160" y="440" as="sourcePoint" />
            <mxPoint x="399.1500000000001" y="530.1199999999999" as="targetPoint" />
            <Array as="points">
              <mxPoint x="320" y="440" />
              <mxPoint x="350" y="530" />
            </Array>
          </mxGeometry>
        </mxCell>
        <mxCell id="uKL7S93gOn8IDhQJY8BF-84" value="max2" style="text;html=1;align=center;verticalAlign=middle;whiteSpace=wrap;rounded=0;" parent="1" vertex="1">
          <mxGeometry x="250" y="330" width="60" height="30" as="geometry" />
        </mxCell>
        <mxCell id="uKL7S93gOn8IDhQJY8BF-85" value="med2" style="text;html=1;align=center;verticalAlign=middle;whiteSpace=wrap;rounded=0;" parent="1" vertex="1">
          <mxGeometry x="250" y="370" width="60" height="30" as="geometry" />
        </mxCell>
        <mxCell id="uKL7S93gOn8IDhQJY8BF-86" value="min2" style="text;html=1;align=center;verticalAlign=middle;whiteSpace=wrap;rounded=0;" parent="1" vertex="1">
          <mxGeometry x="250" y="410" width="60" height="30" as="geometry" />
        </mxCell>
        <mxCell id="uKL7S93gOn8IDhQJY8BF-87" value="Sorting_network" style="rounded=0;whiteSpace=wrap;html=1;" parent="1" vertex="1">
          <mxGeometry x="40" y="471.25" width="120" height="100" as="geometry" />
        </mxCell>
        <mxCell id="uKL7S93gOn8IDhQJY8BF-88" value="" style="endArrow=none;html=1;rounded=0;exitX=1.01;exitY=0.096;exitDx=0;exitDy=0;exitPerimeter=0;" parent="1" source="uKL7S93gOn8IDhQJY8BF-87" edge="1">
          <mxGeometry width="50" height="50" relative="1" as="geometry">
            <mxPoint x="300" y="500" as="sourcePoint" />
            <mxPoint x="410" y="280" as="targetPoint" />
            <Array as="points">
              <mxPoint x="320" y="480" />
              <mxPoint x="400" y="280" />
            </Array>
          </mxGeometry>
        </mxCell>
        <mxCell id="uKL7S93gOn8IDhQJY8BF-89" value="" style="endArrow=none;html=1;rounded=0;exitX=1;exitY=0.5;exitDx=0;exitDy=0;entryX=-0.022;entryY=0.907;entryDx=0;entryDy=0;entryPerimeter=0;" parent="1" source="uKL7S93gOn8IDhQJY8BF-87" target="uKL7S93gOn8IDhQJY8BF-96" edge="1">
          <mxGeometry width="50" height="50" relative="1" as="geometry">
            <mxPoint x="240" y="519.6600000000001" as="sourcePoint" />
            <mxPoint x="321" y="519.6600000000001" as="targetPoint" />
            <Array as="points">
              <mxPoint x="320" y="520" />
              <mxPoint x="360" y="440" />
            </Array>
          </mxGeometry>
        </mxCell>
        <mxCell id="uKL7S93gOn8IDhQJY8BF-90" value="" style="endArrow=none;html=1;rounded=0;exitX=1.007;exitY=0.888;exitDx=0;exitDy=0;exitPerimeter=0;entryX=-0.019;entryY=0.89;entryDx=0;entryDy=0;entryPerimeter=0;" parent="1" source="uKL7S93gOn8IDhQJY8BF-87" target="_PjeG-Arwg3pyeLobfxm-4" edge="1">
          <mxGeometry width="50" height="50" relative="1" as="geometry">
            <mxPoint x="240" y="560" as="sourcePoint" />
            <mxPoint x="402.3000000000002" y="560.5999999999999" as="targetPoint" />
          </mxGeometry>
        </mxCell>
        <mxCell id="uKL7S93gOn8IDhQJY8BF-91" value="max3" style="text;html=1;align=center;verticalAlign=middle;whiteSpace=wrap;rounded=0;" parent="1" vertex="1">
          <mxGeometry x="250" y="450" width="60" height="30" as="geometry" />
        </mxCell>
        <mxCell id="uKL7S93gOn8IDhQJY8BF-92" value="med3" style="text;html=1;align=center;verticalAlign=middle;whiteSpace=wrap;rounded=0;" parent="1" vertex="1">
          <mxGeometry x="250" y="490" width="60" height="30" as="geometry" />
        </mxCell>
        <mxCell id="uKL7S93gOn8IDhQJY8BF-93" value="min3" style="text;html=1;align=center;verticalAlign=middle;whiteSpace=wrap;rounded=0;" parent="1" vertex="1">
          <mxGeometry x="250" y="530" width="60" height="30" as="geometry" />
        </mxCell>
        <mxCell id="uKL7S93gOn8IDhQJY8BF-96" value="Sorting_network" style="rounded=0;whiteSpace=wrap;html=1;" parent="1" vertex="1">
          <mxGeometry x="410" y="350" width="120" height="100" as="geometry" />
        </mxCell>
        <mxCell id="uKL7S93gOn8IDhQJY8BF-97" value="max1" style="text;html=1;align=center;verticalAlign=middle;whiteSpace=wrap;rounded=0;" parent="1" vertex="1">
          <mxGeometry x="500" y="10" width="60" height="30" as="geometry" />
        </mxCell>
        <mxCell id="uKL7S93gOn8IDhQJY8BF-99" value="min1" style="text;html=1;align=center;verticalAlign=middle;whiteSpace=wrap;rounded=0;" parent="1" vertex="1">
          <mxGeometry x="500" y="45" width="60" height="30" as="geometry" />
        </mxCell>
        <mxCell id="uKL7S93gOn8IDhQJY8BF-100" value="max2" style="text;html=1;align=center;verticalAlign=middle;whiteSpace=wrap;rounded=0;" parent="1" vertex="1">
          <mxGeometry x="570" y="45" width="60" height="30" as="geometry" />
        </mxCell>
        <mxCell id="uKL7S93gOn8IDhQJY8BF-104" value="" style="endArrow=none;html=1;rounded=0;exitX=1;exitY=0.5;exitDx=0;exitDy=0;entryX=0;entryY=0.5;entryDx=0;entryDy=0;" parent="1" source="uKL7S93gOn8IDhQJY8BF-96" target="uKL7S93gOn8IDhQJY8BF-107" edge="1">
          <mxGeometry width="50" height="50" relative="1" as="geometry">
            <mxPoint x="740" y="460" as="sourcePoint" />
            <mxPoint x="600" y="400" as="targetPoint" />
          </mxGeometry>
        </mxCell>
        <mxCell id="uKL7S93gOn8IDhQJY8BF-107" value="Sorting_network" style="rounded=0;whiteSpace=wrap;html=1;" parent="1" vertex="1">
          <mxGeometry x="720" y="350" width="120" height="100" as="geometry" />
        </mxCell>
        <mxCell id="uKL7S93gOn8IDhQJY8BF-108" value="" style="endArrow=none;html=1;rounded=0;entryX=0.001;entryY=0.098;entryDx=0;entryDy=0;entryPerimeter=0;exitX=1.005;exitY=0.578;exitDx=0;exitDy=0;exitPerimeter=0;" parent="1" source="_PjeG-Arwg3pyeLobfxm-2" target="uKL7S93gOn8IDhQJY8BF-107" edge="1">
          <mxGeometry width="50" height="50" relative="1" as="geometry">
            <mxPoint x="540" y="280" as="sourcePoint" />
            <mxPoint x="610" y="350" as="targetPoint" />
            <Array as="points">
              <mxPoint x="570" y="280" />
              <mxPoint x="580" y="360" />
              <mxPoint x="640" y="360" />
            </Array>
          </mxGeometry>
        </mxCell>
        <mxCell id="uKL7S93gOn8IDhQJY8BF-110" value="" style="endArrow=none;html=1;rounded=0;entryX=-0.001;entryY=0.899;entryDx=0;entryDy=0;entryPerimeter=0;exitX=1;exitY=0.5;exitDx=0;exitDy=0;" parent="1" source="_PjeG-Arwg3pyeLobfxm-4" target="uKL7S93gOn8IDhQJY8BF-107" edge="1">
          <mxGeometry width="50" height="50" relative="1" as="geometry">
            <mxPoint x="540" y="530" as="sourcePoint" />
            <mxPoint x="570" y="500" as="targetPoint" />
            <Array as="points">
              <mxPoint x="560" y="520" />
              <mxPoint x="580" y="440" />
            </Array>
          </mxGeometry>
        </mxCell>
        <mxCell id="uKL7S93gOn8IDhQJY8BF-111" value="" style="endArrow=none;html=1;rounded=0;exitX=1;exitY=0.5;exitDx=0;exitDy=0;entryX=0.5;entryY=1;entryDx=0;entryDy=0;" parent="1" source="uKL7S93gOn8IDhQJY8BF-107" target="uKL7S93gOn8IDhQJY8BF-119" edge="1">
          <mxGeometry width="50" height="50" relative="1" as="geometry">
            <mxPoint x="770" y="420" as="sourcePoint" />
            <mxPoint x="780" y="400" as="targetPoint" />
          </mxGeometry>
        </mxCell>
        <mxCell id="uKL7S93gOn8IDhQJY8BF-118" value="med5" style="text;html=1;align=center;verticalAlign=middle;whiteSpace=wrap;rounded=0;" parent="1" vertex="1">
          <mxGeometry x="650" y="370" width="60" height="30" as="geometry" />
        </mxCell>
        <mxCell id="uKL7S93gOn8IDhQJY8BF-119" value="med_o" style="text;html=1;align=center;verticalAlign=middle;whiteSpace=wrap;rounded=0;" parent="1" vertex="1">
          <mxGeometry x="900" y="369.99" width="60" height="30" as="geometry" />
        </mxCell>
        <mxCell id="zksBitmu3ssV2ISToepD-1" value="stage 1" style="text;html=1;align=center;verticalAlign=middle;whiteSpace=wrap;rounded=0;" parent="1" vertex="1">
          <mxGeometry x="69" y="611.25" width="60" height="30" as="geometry" />
        </mxCell>
        <mxCell id="zksBitmu3ssV2ISToepD-3" value="stage 2" style="text;html=1;align=center;verticalAlign=middle;whiteSpace=wrap;rounded=0;" parent="1" vertex="1">
          <mxGeometry x="410" y="611.25" width="60" height="30" as="geometry" />
        </mxCell>
        <mxCell id="zksBitmu3ssV2ISToepD-4" value="stage 3" style="text;html=1;align=center;verticalAlign=middle;whiteSpace=wrap;rounded=0;" parent="1" vertex="1">
          <mxGeometry x="760" y="611.25" width="60" height="30" as="geometry" />
        </mxCell>
        <mxCell id="zksBitmu3ssV2ISToepD-9" value="" style="group" parent="1" vertex="1" connectable="0">
          <mxGeometry x="200" y="225.67" width="50" height="111.15999999999998" as="geometry" />
        </mxCell>
        <mxCell id="zksBitmu3ssV2ISToepD-5" value="Register" style="rounded=0;whiteSpace=wrap;html=1;container=1;" parent="zksBitmu3ssV2ISToepD-9" vertex="1">
          <mxGeometry width="50" height="109.99999999999999" as="geometry" />
        </mxCell>
        <mxCell id="zksBitmu3ssV2ISToepD-10" value="" style="triangle;whiteSpace=wrap;html=1;rotation=270;" parent="zksBitmu3ssV2ISToepD-9" vertex="1">
          <mxGeometry x="19.45" y="95.80999999999999" width="11.1" height="15.35" as="geometry" />
        </mxCell>
        <mxCell id="zksBitmu3ssV2ISToepD-15" value="" style="group" parent="1" vertex="1" connectable="0">
          <mxGeometry x="200" y="350" width="50" height="111.15999999999998" as="geometry" />
        </mxCell>
        <mxCell id="zksBitmu3ssV2ISToepD-16" value="Register" style="rounded=0;whiteSpace=wrap;html=1;container=1;" parent="zksBitmu3ssV2ISToepD-15" vertex="1">
          <mxGeometry width="50" height="109.99999999999999" as="geometry" />
        </mxCell>
        <mxCell id="zksBitmu3ssV2ISToepD-17" value="" style="triangle;whiteSpace=wrap;html=1;rotation=270;" parent="zksBitmu3ssV2ISToepD-15" vertex="1">
          <mxGeometry x="19.45" y="95.80999999999999" width="11.1" height="15.35" as="geometry" />
        </mxCell>
        <mxCell id="zksBitmu3ssV2ISToepD-18" value="" style="group" parent="1" vertex="1" connectable="0">
          <mxGeometry x="200" y="470" width="50" height="111.15999999999998" as="geometry" />
        </mxCell>
        <mxCell id="zksBitmu3ssV2ISToepD-19" value="Register" style="rounded=0;whiteSpace=wrap;html=1;container=1;" parent="zksBitmu3ssV2ISToepD-18" vertex="1">
          <mxGeometry width="50" height="109.99999999999999" as="geometry" />
        </mxCell>
        <mxCell id="zksBitmu3ssV2ISToepD-20" value="" style="triangle;whiteSpace=wrap;html=1;rotation=270;" parent="zksBitmu3ssV2ISToepD-18" vertex="1">
          <mxGeometry x="19.45" y="95.80999999999999" width="11.1" height="15.35" as="geometry" />
        </mxCell>
        <mxCell id="zksBitmu3ssV2ISToepD-21" value="" style="group" parent="1" vertex="1" connectable="0">
          <mxGeometry x="600" y="344.42" width="50" height="111.15999999999998" as="geometry" />
        </mxCell>
        <mxCell id="zksBitmu3ssV2ISToepD-22" value="Register" style="rounded=0;whiteSpace=wrap;html=1;container=1;" parent="zksBitmu3ssV2ISToepD-21" vertex="1">
          <mxGeometry width="50" height="109.99999999999999" as="geometry" />
        </mxCell>
        <mxCell id="zksBitmu3ssV2ISToepD-23" value="" style="triangle;whiteSpace=wrap;html=1;rotation=270;" parent="zksBitmu3ssV2ISToepD-21" vertex="1">
          <mxGeometry x="19.45" y="95.80999999999999" width="11.1" height="15.35" as="geometry" />
        </mxCell>
        <mxCell id="_PjeG-Arwg3pyeLobfxm-2" value="Sorting_network" style="rounded=0;whiteSpace=wrap;html=1;" vertex="1" parent="1">
          <mxGeometry x="410" y="221.25" width="120" height="100" as="geometry" />
        </mxCell>
        <mxCell id="_PjeG-Arwg3pyeLobfxm-4" value="Sorting_network" style="rounded=0;whiteSpace=wrap;html=1;" vertex="1" parent="1">
          <mxGeometry x="410" y="470" width="120" height="100" as="geometry" />
        </mxCell>
        <mxCell id="_PjeG-Arwg3pyeLobfxm-5" value="med4" style="text;html=1;align=center;verticalAlign=middle;whiteSpace=wrap;rounded=0;" vertex="1" parent="1">
          <mxGeometry x="650" y="321.25" width="60" height="30" as="geometry" />
        </mxCell>
        <mxCell id="_PjeG-Arwg3pyeLobfxm-6" value="med6" style="text;html=1;align=center;verticalAlign=middle;whiteSpace=wrap;rounded=0;" vertex="1" parent="1">
          <mxGeometry x="650" y="450" width="60" height="30" as="geometry" />
        </mxCell>
      </root>
    </mxGraphModel>
  </diagram>
</mxfile>
